<svg width="13" height="16" viewBox="0 0 13 16" fill="none" xmlns="http://www.w3.org/2000/svg">
<path d="M11.7393 4.25L11.1696 14.0825C11.1475 14.4655 10.9733 14.8258 10.6826 15.0894C10.3919 15.3531 10.0069 15.5 9.60668 15.5H3.17677C2.77655 15.5 2.39153 15.3531 2.10085 15.0894C1.81017 14.8258 1.63591 14.4655 1.6139 14.0825L1.04416 4.25H0.913468C0.705907 4.25 0.506848 4.17098 0.36008 4.03033C0.213313 3.88968 0.130859 3.69891 0.130859 3.5V1.25C0.130859 1.05109 0.213313 0.860322 0.36008 0.71967C0.506848 0.579018 0.705907 0.5 0.913468 0.5H11.87C12.0775 0.5 12.2766 0.579018 12.4234 0.71967C12.5701 0.860322 12.6526 1.05109 12.6526 1.25V3.5C12.6526 3.69891 12.5701 3.88968 12.4234 4.03033C12.2766 4.17098 12.0775 4.25 11.87 4.25H11.7393ZM10.1717 4.25H2.61173L3.17677 14H9.60668L10.1717 4.25ZM1.69608 2V2.75H11.0874V2H1.69608ZM4.82651 5.75C5.03407 5.75 5.23313 5.82902 5.3799 5.96967C5.52667 6.11032 5.60912 6.30109 5.60912 6.5V11.75C5.60912 11.9489 5.52667 12.1397 5.3799 12.2803C5.23313 12.421 5.03407 12.5 4.82651 12.5C4.61895 12.5 4.41989 12.421 4.27312 12.2803C4.12636 12.1397 4.0439 11.9489 4.0439 11.75V6.5C4.0439 6.30109 4.12636 6.11032 4.27312 5.96967C4.41989 5.82902 4.61895 5.75 4.82651 5.75ZM7.95695 5.75C8.16451 5.75 8.36357 5.82902 8.51033 5.96967C8.6571 6.11032 8.73955 6.30109 8.73955 6.5V11.75C8.73955 11.9489 8.6571 12.1397 8.51033 12.2803C8.36357 12.421 8.16451 12.5 7.95695 12.5C7.74938 12.5 7.55033 12.421 7.40356 12.2803C7.25679 12.1397 7.17434 11.9489 7.17434 11.75V6.5C7.17434 6.30109 7.25679 6.11032 7.40356 5.96967C7.55033 5.82902 7.74938 5.75 7.95695 5.75Z" fill="#535353"/>
</svg>
